# xmcd CD database file
# Generated: Thu Jul 29 03:46:47 2004 by KSCD
# 
# Track frame offsets:
#       150
#       16175
#       31026
#       55051
#       70243
#       89065
#       106574
#       122881
#       136708
#       151051
#       166438
#
# Disc length: 2421 seconds
#
# Revision: 1
# Processed by: cddbd v1.5.1PL0 Copyright (c) Steve Scherf et al.
# Submitted via: Kscd 1.3.3
#
DISCID=7e09730b
DTITLE=Jesica Andrews - Hart Shaped World
DYEAR=1900
DGENRE=
TTITLE0=01 Track 1
TTITLE1=02 Track 2
TTITLE2=03 Track 3
TTITLE3=04 Track 4
TTITLE4=05 Track 5
TTITLE5=07 Track 7
TTITLE6=08 Track 8
TTITLE7=09 Track 9
TTITLE8=10 Track 10
TTITLE9=11 Track 11
TTITLE10=12 Track 12
EXTD=
EXTT0=
EXTT1=
EXTT2=
EXTT3=
EXTT4=
EXTT5=
EXTT6=
EXTT7=
EXTT8=
EXTT9=
EXTT10=
PLAYORDER=
